<?xml version="1.0" encoding="utf-8"?>
<svg xmlns="http://www.w3.org/2000/svg"
	xmlns:xlink="http://www.w3.org/1999/xlink"
	width="47px" height="69px" viewBox="0 0 47 69">
<path fillRule="evenodd" d="M 40.6 68.99C 40.6 68.99 6.4 68.99 6.4 68.99 2.87 68.99-0.01 66.09-0.01 62.52-0.01 62.52-0.01 6.48-0.01 6.48-0.01 2.91 2.87 0.01 6.4 0.01 6.4 0.01 40.6 0.01 40.6 0.01 44.14 0.01 47.01 2.91 47.01 6.48 47.01 6.48 47.01 62.52 47.01 62.52 47.01 66.09 44.14 68.99 40.6 68.99ZM 42.74 6.48C 42.74 5.29 41.78 4.32 40.6 4.32 40.6 4.32 6.4 4.32 6.4 4.32 5.22 4.32 4.26 5.29 4.26 6.48 4.26 6.48 4.26 62.52 4.26 62.52 4.26 63.71 5.22 64.68 6.4 64.68 6.4 64.68 40.6 64.68 40.6 64.68 41.78 64.68 42.74 63.71 42.74 62.52 42.74 62.52 42.74 6.48 42.74 6.48ZM 8.54 8.63C 8.54 8.63 38.46 8.63 38.46 8.63 38.46 8.63 38.46 56.06 38.46 56.06 38.46 56.06 8.54 56.06 8.54 56.06 8.54 56.06 8.54 8.63 8.54 8.63ZM 23.5 58.21C 24.68 58.21 25.64 59.18 25.64 60.37 25.64 61.55 24.68 62.52 23.5 62.52 22.32 62.52 21.36 61.55 21.36 60.37 21.36 59.18 22.32 58.21 23.5 58.21Z" fill="rgb(255,255,255)"/></svg>