<?xml version="1.0" encoding="utf-8"?>
<svg xmlns="http://www.w3.org/2000/svg"
	xmlns:xlink="http://www.w3.org/1999/xlink"
	width="70px" height="70px" viewBox="0 0 70 70">
<path fillRule="evenodd" d="M 61.24 56.87C 61.24 56.87 61.24 69.99 61.24 69.99 61.24 69.99 48.12 56.87 48.12 56.87 48.12 56.87 26.25 56.87 26.25 56.87 21.88 56.87 17.51 52.49 17.51 48.12 17.51 48.12 17.51 45.56 17.51 45.56 17.51 45.56 23.69 39.37 23.69 39.37 23.69 39.37 43.75 39.37 43.75 39.37 50.5 39.37 56.87 33 56.87 26.25 56.87 26.25 56.87 21.88 56.87 21.88 56.87 21.88 61.24 21.88 61.24 21.88 65.62 21.88 69.99 26.25 69.99 30.63 69.99 30.63 69.99 48.12 69.99 48.12 69.99 52.49 65.62 56.87 61.24 56.87ZM 43.75 35C 43.75 35 21.88 35 21.88 35 21.88 35 8.76 48.12 8.76 48.12 8.76 48.12 8.76 35 8.76 35 4.38 35 0.01 30.63 0.01 26.25 0.01 26.25 0.01 8.76 0.01 8.76 0.01 4.38 4.38 0.01 8.76 0.01 8.76 0.01 43.75 0.01 43.75 0.01 48.12 0.01 52.49 4.38 52.49 8.76 52.49 8.76 52.49 26.25 52.49 26.25 52.49 30.63 48.12 35 43.75 35Z" fill="rgb(249,249,249)"/></svg>