<?xml version="1.0" encoding="utf-8"?>
<svg xmlns="http://www.w3.org/2000/svg"
	xmlns:xlink="http://www.w3.org/1999/xlink"
	width="70px" height="70px" viewBox="0 0 70 70">
<path fillRule="evenodd" d="M 0.01 35C 0.01 35 13.41 30.63 13.41 30.63 13.41 30.63 35 41.42 35 41.42 35 41.42 57.69 30.35 57.69 30.35 57.69 30.35 69.99 35 69.99 35 69.99 35 35 52.49 35 52.49 35 52.49 0.01 35 0.01 35ZM 0.01 17.51C 0.01 17.51 35 0.01 35 0.01 35 0.01 69.99 17.51 69.99 17.51 69.99 17.51 35 35 35 35 35 35 0.01 17.51 0.01 17.51ZM 35 58.92C 35 58.92 57.69 47.85 57.69 47.85 57.69 47.85 69.99 52.49 69.99 52.49 69.99 52.49 35 69.99 35 69.99 35 69.99 0.01 52.49 0.01 52.49 0.01 52.49 13.41 48.12 13.41 48.12 13.41 48.12 35 58.92 35 58.92Z" fill="rgb(255,255,255)"/></svg>