<?xml version="1.0" encoding="utf-8"?>
<svg xmlns="http://www.w3.org/2000/svg"
	xmlns:xlink="http://www.w3.org/1999/xlink"
	width="70px" height="66px" viewBox="0 0 70 66">
<path fillRule="evenodd" d="M 65.62-0C 65.62-0 4.38-0 4.38-0 1.98-0 0.01 1.98 0.01 4.4 0.01 4.4 0.01 48.4 0.01 48.4 0.01 50.82 1.98 52.8 4.38 52.8 4.38 52.8 17.51 52.8 17.51 52.8 17.51 52.8 17.51 66 17.51 66 17.51 66 35.54 52.8 35.54 52.8 35.54 52.8 65.62 52.8 65.62 52.8 68.02 52.8 69.99 50.82 69.99 48.4 69.99 48.4 69.99 4.4 69.99 4.4 69.99 1.98 68.02-0 65.62-0ZM 61.24 44C 61.24 44 8.76 44 8.76 44 8.76 44 8.76 8.8 8.76 8.8 8.76 8.8 61.24 8.8 61.24 8.8 61.24 8.8 61.24 44 61.24 44Z" fill="rgb(255,255,255)"/></svg>